<?xml version="1.0" encoding="UTF-8" standalone="no"?>
<svg
   xmlns:dc="http://purl.org/dc/elements/1.1/"
   xmlns:cc="http://creativecommons.org/ns#"
   xmlns:rdf="http://www.w3.org/1999/02/22-rdf-syntax-ns#"
   xmlns:svg="http://www.w3.org/2000/svg"
   xmlns="http://www.w3.org/2000/svg"
   xmlns:sodipodi="http://sodipodi.sourceforge.net/DTD/sodipodi-0.dtd"
   xmlns:inkscape="http://www.inkscape.org/namespaces/inkscape"
   sodipodi:docname="virus.svg"
   inkscape:version="1.0beta2 (unknown)"
   id="svg8"
   version="1.1"
   viewBox="0 0 210 297"
   height="297mm"
   width="210mm">
  <defs
     id="defs2" />
  <sodipodi:namedview
     inkscape:window-maximized="1"
     inkscape:window-y="34"
     inkscape:window-x="0"
     inkscape:window-height="979"
     inkscape:window-width="1680"
     showgrid="false"
     inkscape:document-rotation="0"
     inkscape:current-layer="layer1"
     inkscape:document-units="mm"
     inkscape:cy="489.46129"
     inkscape:cx="398.52963"
     inkscape:zoom="1.1416135"
     inkscape:pageshadow="2"
     inkscape:pageopacity="0.0"
     borderopacity="1.0"
     bordercolor="#666666"
     pagecolor="#ffffff"
     id="base" />
  <metadata
     id="metadata5">
    <rdf:RDF>
      <cc:Work
         rdf:about="">
        <dc:format>image/svg+xml</dc:format>
        <dc:type
           rdf:resource="http://purl.org/dc/dcmitype/StillImage" />
        <dc:title></dc:title>
      </cc:Work>
    </rdf:RDF>
  </metadata>
  <g
     id="layer1"
     inkscape:groupmode="layer"
     inkscape:label="Warstwa 1">
    <path
       transform="scale(0.26458333)"
       d="M 295.54263 366.05241 A 164.22585 164.22585 0 0 1 367.20325 349.59289 A 164.22585 164.22585 0 0 1 515.68557 443.65375 "
       style="color:#000000;overflow:visible;fill:none;stroke:#000000;stroke-width:7.55906;stroke-linecap:round;stroke-linejoin:round;stroke-miterlimit:4;stroke-dasharray:none;paint-order:stroke markers fill;fill-opacity:1"
       id="path833" />
    <path
       transform="scale(0.26458333)"
       d="M 271.16452 647.03545 A 164.22585 164.22585 0 0 1 202.9774 513.81874 A 164.22585 164.22585 0 0 1 283.05506 372.78962 "
       style="color:#000000;overflow:visible;fill:none;stroke:#000000;stroke-width:7.55906;stroke-linecap:round;stroke-linejoin:round;stroke-miterlimit:4;stroke-dasharray:none;paint-order:stroke markers fill"
       id="path945" />
    <path
       transform="scale(0.26458333)"
       d="M 417.24671 670.23412 A 164.22585 164.22585 0 0 1 367.20325 678.04457 A 164.22585 164.22585 0 0 1 279.84005 652.87915 "
       style="color:#000000;overflow:visible;fill:none;stroke:#000000;stroke-width:7.55906;stroke-linecap:round;stroke-linejoin:round;stroke-miterlimit:4;stroke-dasharray:none;paint-order:stroke markers fill"
       id="path952" />
    <path
       transform="scale(0.26458333)"
       d="M 525.48106 470.02087 A 164.22585 164.22585 0 0 1 531.42906 513.81873 L 531.42906 513.81873 A 164.22585 164.22585 0 0 1 428.03754 666.36155 "
       style="color:#000000;overflow:visible;fill:none;stroke:#000000;stroke-width:7.55906;stroke-linecap:round;stroke-linejoin:round;stroke-miterlimit:4;stroke-dasharray:none;paint-order:stroke markers fill"
       id="path959" />
    <path
       transform="scale(0.26458333)"
       d="M 505.10585 602.5788 C 529.27117 614.51327 561.88683 636.96731 573.45158 653.89141 C 588.00238 675.18539 568.96883 693.45037 585.19306 704.28907 C 601.41744 715.1277 608.53856 683.83748 623.13766 667.43652 C 637.73681 651.03553 668.87675 641.63974 652.87536 626.59586 C 636.87394 611.55205 616.44333 640.20922 588.8987 634.09168 C 566.72984 629.16796 533.44166 606.93067 512.39683 590.03932 "
       style="fill:none;fill-rule:evenodd;stroke:#000000;stroke-width:7.55906;stroke-linecap:butt;stroke-linejoin:miter;stroke-miterlimit:4;stroke-dasharray:none;stroke-opacity:1"
       id="path873" />
    <path
       transform="scale(0.26458333)"
       d="M 422.11814 359.38434 C 435.53126 337.2826 452.37592 290.62509 451.21005 266.92119 C 449.94308 241.16162 423.74132 238.1032 430.12369 219.66494 C 436.5061 201.22668 461.08256 221.86125 482.62439 226.11286 C 504.16622 230.36448 534.65839 219.04166 530.99384 240.69653 C 527.32929 262.35139 493.73658 251.85504 475.48082 273.36913 C 458.43337 293.45933 443.53609 341.16609 438.49018 366.24115 "
       style="fill:none;fill-rule:evenodd;stroke:#000000;stroke-width:7.55906;stroke-linecap:butt;stroke-linejoin:miter;stroke-miterlimit:4;stroke-dasharray:none;stroke-opacity:1"
       id="path881" />
    <path
       style="fill:none;fill-rule:evenodd;stroke:#000000;stroke-width:2;stroke-linecap:butt;stroke-linejoin:miter;stroke-miterlimit:4;stroke-dasharray:none;stroke-opacity:1"
       d="m 127.04693,112.78896 c 0,0 3.7584,4.12742 11.4207,4.92686 7.66231,0.79944 25.98956,-2.1214 33.11603,-6.64698 7.12647,-4.52558 3.70648,-12.401395 10.00117,-13.587385 6.29467,-1.18599 4.44443,9.076335 6.7616,15.832575 2.31716,6.75624 10.53418,13.5133 3.76878,15.98544 -6.76541,2.47214 -9.27807,-8.68935 -18.39281,-10.35022 -9.11473,-1.66089 -26.84234,2.498 -34.06555,5.15455 -7.2232,2.6566 -9.96372,6.17958 -9.96372,6.17958"
       id="path845"
       inkscape:connector-curvature="0"
       sodipodi:nodetypes="czzzzzzzc" />
    <path
       style="fill:none;fill-rule:evenodd;stroke:#000000;stroke-width:2;stroke-linecap:butt;stroke-linejoin:miter;stroke-miterlimit:4;stroke-dasharray:none;stroke-opacity:1"
       d="m 112.95482,157.55654 c 0,0 -2.66901,3.50895 -2.10815,9.46394 0.56085,5.95499 5.71165,19.43777 10.38634,24.14687 4.67469,4.70911 10.35075,0.86755 12.26393,5.46957 1.91317,4.60202 -6.46306,4.8099 -11.42809,7.63625 -4.96503,2.82634 -9.01369,10.14115 -12.01376,5.38349 -3.00007,-4.75766 5.40674,-8.42619 5.29911,-15.62174 -0.10763,-7.19554 -6.14105,-20.02724 -9.35765,-25.10415 -3.21659,-5.07691 -6.419331,-6.60719 -6.419331,-6.60719"
       id="path847"
       inkscape:connector-curvature="0"
       sodipodi:nodetypes="czzzzzzzc" />
    <path
       style="fill:none;fill-rule:evenodd;stroke:#000000;stroke-width:2;stroke-linecap:butt;stroke-linejoin:miter;stroke-miterlimit:4;stroke-dasharray:none;stroke-opacity:1"
       d="m 88.854015,162.90229 c 0,0 -4.078147,-0.30147 -8.504473,3.11835 -4.426327,3.41982 -12.546112,14.16004 -13.972813,20.13222 -1.426703,5.97218 4.387676,8.42926 1.692186,12.21494 -2.695495,3.78569 -6.964528,-2.57924 -11.628991,-4.99633 -4.664463,-2.4171 -12.423287,-1.87532 -10.137567,-6.5785 2.285716,-4.70318 9.301751,-0.0503 14.929546,-3.74227 5.627793,-3.69196 12.801042,-14.78732 15.232671,-19.81785 2.431628,-5.03052 2.070161,-8.27158 2.070161,-8.27158"
       id="path849"
       inkscape:connector-curvature="0"
       sodipodi:nodetypes="czzzzzzzc" />
    <path
       style="fill:none;fill-rule:evenodd;stroke:#000000;stroke-width:2;stroke-linecap:butt;stroke-linejoin:miter;stroke-miterlimit:4;stroke-dasharray:none;stroke-opacity:1"
       d="m 54.631386,146.87547 c 0,0 -2.040529,-5.62441 -7.176551,-8.22027 -5.136029,-2.59585 -18.040154,-3.17501 -23.492315,0.5485 -5.452154,3.72351 -4.123406,13.64081 -8.578879,13.65484 -4.455487,0.014 -1.875284,-11.53831 -2.593565,-19.91185 -0.718281,-8.37354 -5.4699975,-18.02978 -0.52786,-19.43973 4.942131,-1.40996 5.229483,12.1376 11.248088,16.05246 6.018597,3.91486 18.671439,2.92157 23.9502,1.39622 5.27876,-1.52536 7.603881,-5.0338 7.603881,-5.0338"
       id="path851"
       inkscape:connector-curvature="0"
       sodipodi:nodetypes="czzzzzzzc" />
    <path
       sodipodi:nodetypes="czzzzzzzc"
       inkscape:connector-curvature="0"
       id="path841"
       d="m 95.107985,107.02259 c 0,0 -4.832046,0.85249 -10.414372,-3.45596 C 79.111287,99.25818 68.468288,85.115547 66.23004,76.924717 63.991789,68.733898 70.698309,64.686849 67.145342,59.68427 c -3.552971,-5.00258 -8.06594,4.339353 -13.405907,8.208913 -5.339969,3.869566 -14.633643,3.933608 -11.486231,10.261064 3.147406,6.32746 11.087814,-0.91375 18.126252,3.64772 7.038434,4.56148 16.58562,19.300283 19.93639,26.069523 3.350772,6.76927 3.212203,11.3345 3.212203,11.3345"
       style="fill:none;fill-rule:evenodd;stroke:#000000;stroke-width:2;stroke-linecap:butt;stroke-linejoin:miter;stroke-miterlimit:4;stroke-dasharray:none;stroke-opacity:1" />
    <path
       sodipodi:nodetypes="czzzzzzzc"
       inkscape:connector-curvature="0"
       id="path849-6"
       d="m 86.260974,139.86674 c 0,0 -2.241666,-2.19655 -6.047414,-2.30538 -3.805747,-0.10883 -4.960293,0.63147 -7.971021,3.55348 -3.010727,2.92202 -0.557368,7.28474 -3.498872,8.25263 -2.941509,0.9679 -7.82389,-2.2552 -9.628676,-6.02588 -1.804782,-3.77069 -1.726301,-10.02203 1.314985,-11.74936 3.041281,-1.72734 5.383291,4.562 9.981696,5.09878 4.5984,0.53678 5.337125,-0.88651 8.582486,-2.74057 3.245356,-1.85406 2.56679,-5.77294 2.56679,-5.77294"
       style="fill:none;fill-rule:evenodd;stroke:#000000;stroke-width:2;stroke-linecap:butt;stroke-linejoin:miter;stroke-miterlimit:4;stroke-dasharray:none;stroke-opacity:1" />
    <ellipse
       transform="rotate(30.247527)"
       ry="5.9685664"
       rx="9.930192"
       cy="43.631737"
       cx="152.55257"
       id="path914"
       style="color:#000000;overflow:visible;fill:none;stroke:#000000;stroke-width:2;stroke-linecap:round;stroke-linejoin:round;stroke-miterlimit:4;stroke-dasharray:none;paint-order:stroke markers fill" />
    <ellipse
       style="color:#000000;overflow:visible;fill:none;stroke:#000000;stroke-width:2;stroke-linecap:round;stroke-linejoin:round;stroke-miterlimit:4;stroke-dasharray:none;paint-order:stroke markers fill"
       id="path914-5"
       cx="-96.086197"
       cy="-152.70206"
       rx="9.930192"
       ry="5.9685664"
       transform="rotate(176.32487)" />
    <path
       sodipodi:nodetypes="csc"
       inkscape:connector-curvature="0"
       id="path931"
       d="m 101.97267,114.62414 c 0,0 1.09461,6.61268 -0.55567,9.20673 -1.41059,2.21729 -6.926697,3.76508 -6.926697,3.76508"
       style="fill:none;fill-rule:evenodd;stroke:#000000;stroke-width:2;stroke-linecap:butt;stroke-linejoin:miter;stroke-opacity:1;stroke-miterlimit:4;stroke-dasharray:none" />
    <path
       sodipodi:nodetypes="czc"
       inkscape:connector-curvature="0"
       id="path933"
       d="m 114.11117,121.98186 c -1.23589,0.5844 -5.71307,2.30176 -7.30034,4.06207 -1.58727,1.76031 -2.30891,5.39375 -2.30891,5.39375"
       style="fill:none;fill-rule:evenodd;stroke:#000000;stroke-width:2;stroke-linecap:butt;stroke-linejoin:miter;stroke-opacity:1;stroke-miterlimit:4;stroke-dasharray:none" />
  </g>
</svg>
